<svg width="18" height="18" viewBox="0 0 18 18" fill="none" xmlns="http://www.w3.org/2000/svg">
<path d="M15.0244 2.56667C13.3686 0.916666 11.161 0 8.83066 0C3.98606 0 0.0613231 3.91111 0.0613231 8.73889C0.0613231 10.2667 0.490592 11.7944 1.22648 13.0778L0 17.6L4.66063 16.3778C5.94843 17.05 7.35888 17.4167 8.83066 17.4167C13.6753 17.4167 17.6 13.5056 17.6 8.67778C17.5387 6.41667 16.6801 4.21667 15.0244 2.56667ZM13.062 11.8556C12.878 12.3444 12.0195 12.8333 11.5902 12.8944C11.2223 12.9556 10.7317 12.9556 10.2411 12.8333C9.93449 12.7111 9.50523 12.5889 9.01464 12.3444C6.80697 11.4278 5.39652 9.22778 5.27387 9.04445C5.15122 8.92222 4.35401 7.88333 4.35401 6.78333C4.35401 5.68333 4.90592 5.19444 5.0899 4.95C5.27387 4.70555 5.51916 4.70556 5.70314 4.70556C5.82578 4.70556 6.00975 4.70556 6.1324 4.70556C6.25505 4.70556 6.43902 4.64444 6.623 5.07222C6.80697 5.5 7.23624 6.6 7.29756 6.66111C7.35888 6.78333 7.35888 6.90556 7.29756 7.02778C7.23624 7.15 7.17491 7.27222 7.05226 7.39444C6.92961 7.51667 6.80697 7.7 6.74564 7.76111C6.62299 7.88333 6.50035 8.00556 6.623 8.18889C6.74564 8.43333 7.17491 9.10555 7.84948 9.71667C8.70801 10.45 9.38258 10.6944 9.62788 10.8167C9.87317 10.9389 9.99582 10.8778 10.1185 10.7556C10.2411 10.6333 10.6704 10.1444 10.793 9.9C10.9157 9.65556 11.0997 9.71667 11.2836 9.77778C11.4676 9.83889 12.5714 10.3889 12.7554 10.5111C13.0007 10.6333 13.1233 10.6944 13.1847 10.7556C13.246 10.9389 13.246 11.3667 13.062 11.8556Z" fill="#484949"/>
</svg>
